<svg width="16" height="16" viewBox="0 0 16 16" fill="none" xmlns="http://www.w3.org/2000/svg">
<path fill-rule="evenodd" clip-rule="evenodd" d="M15.2013 14.6249C15.2013 14.8181 15.1253 15.0034 14.99 15.1401C14.8548 15.2767 14.6714 15.3535 14.4801 15.3535C14.2888 15.3535 14.1054 15.2767 13.9701 15.1401L8.07249 9.1814L2.02987 15.2866C1.89462 15.4232 1.71118 15.5 1.51991 15.5C1.32864 15.5 1.14521 15.4232 1.00996 15.2866C0.874707 15.1499 0.798725 14.9646 0.798725 14.7713C0.798725 14.5781 0.874707 14.3927 1.00996 14.2561L7.05257 8.15093L0.711232 1.74395C0.575983 1.6073 0.5 1.42197 0.5 1.22872C0.5 1.03546 0.575983 0.850128 0.711232 0.713479C0.846481 0.57683 1.02992 0.500061 1.22119 0.500061C1.41246 0.500061 1.5959 0.57683 1.73115 0.713479L8.07249 7.12046L14.2689 0.85996C14.4041 0.723311 14.5875 0.646542 14.7788 0.646542C14.9701 0.646542 15.1535 0.723311 15.2888 0.85996C15.424 0.996609 15.5 1.18194 15.5 1.3752C15.5 1.56845 15.424 1.75378 15.2888 1.89043L9.0924 8.15093L14.99 14.1096C15.1253 14.2463 15.2013 14.4316 15.2013 14.6249Z" fill="#716E6A"/>
</svg>
