<svg width="1417" height="2871" viewBox="0 0 1417 2871" fill="none" xmlns="http://www.w3.org/2000/svg">
<path d="M346.5 13.5C346.5 13.5 -242.5 414 139 583.5C520.5 753 891.406 344.5 1187 344.5C1482 344.5 1465 726 1284 864C1103 1002 290.073 507.379 139 929C-24.7955 1386.13 1235.54 900.513 1371.5 1269C1597.5 1881.5 845 1337 346.5 1593" stroke="#716E6A" stroke-opacity="0.3" stroke-width="2"/>
<path d="M346.5 1593C283.5 1622 -242.5 1993.5 139 2163C520.5 2332.5 891.406 1924 1187 1924C1482 1924 1465 2305.5 1284 2443.5C1103 2581.5 290.073 2086.88 139 2508.5C-24.7957 2965.63 1332 2859 1332 2859" stroke="#716E6A" stroke-opacity="0.3" stroke-width="2"/>
<path fill-rule="evenodd" clip-rule="evenodd" d="M334.079 6.62186L345.968 0L358.312 6.57988L358.422 6.51582L358.5 20.7464L346.078 27.9581L346.078 28L334 20.9539L334.078 6.62185L346.129 13.6524L346.13 13.6523L334.079 6.62186Z" fill="#DBE283"/>
<path fill-rule="evenodd" clip-rule="evenodd" d="M139.822 625.866L139.821 626L101 603.352L101.251 557.284L101.251 557.285L139.467 536L179.144 557.15L179.5 556.944L179.751 602.685L139.822 625.866Z" fill="#289C39"/>
<path fill-rule="evenodd" clip-rule="evenodd" d="M1211.82 2507.87L1211.82 2508L1173 2485.35L1173.25 2439.28L1173.25 2439.28L1211.47 2418L1251.14 2439.15L1251.5 2438.94L1251.75 2484.69L1211.82 2507.87Z" fill="#289C39"/>
<path fill-rule="evenodd" clip-rule="evenodd" d="M1213.82 929.866L1213.82 930L1175 907.352L1175.25 861.284L1175.25 861.285L1213.47 840L1253.14 861.15L1253.5 860.944L1253.75 906.685L1213.82 929.866Z" fill="#289C39"/>
<path fill-rule="evenodd" clip-rule="evenodd" d="M74.8222 2163.87L74.8214 2164L36 2141.35L36.2511 2095.28L36.2512 2095.28L74.4671 2074L114.144 2095.15L114.5 2094.94L114.751 2140.69L74.8222 2163.87Z" fill="#289C39"/>
<path fill-rule="evenodd" clip-rule="evenodd" d="M1222.08 342.622L1233.97 336L1246.31 342.58L1246.42 342.516L1246.5 356.746L1234.08 363.958L1234.08 364L1222 356.954L1222.08 342.622L1234.13 349.652L1234.13 349.652L1222.08 342.622Z" fill="#DBE283"/>
<path fill-rule="evenodd" clip-rule="evenodd" d="M316.079 759.622L327.968 753L340.312 759.58L340.422 759.516L340.5 773.746L328.078 780.958L328.078 781L316 773.954L316.078 759.622L328.129 766.652L328.13 766.652L316.079 759.622Z" fill="#DBE283"/>
<path fill-rule="evenodd" clip-rule="evenodd" d="M267.079 2761.62L278.968 2755L291.312 2761.58L291.422 2761.52L291.5 2775.75L279.078 2782.96L279.078 2783L267 2775.95L267.078 2761.62L279.129 2768.65L279.13 2768.65L267.079 2761.62Z" fill="#DBE283"/>
<path fill-rule="evenodd" clip-rule="evenodd" d="M1222.08 1919.62L1233.97 1913L1246.31 1919.58L1246.42 1919.52L1246.5 1933.75L1234.08 1940.96L1234.08 1941L1222 1933.95L1222.08 1919.62L1234.13 1926.65L1234.13 1926.65L1222.08 1919.62Z" fill="#DBE283"/>
<g clip-path="url(#clip0_1_62)">
<path d="M140 597.667C125.981 597.667 115 592.175 115 585.167C115 580.95 118.902 577.202 125.706 574.89C126.25 574.698 126.842 574.994 127.029 575.54C127.215 576.085 126.923 576.675 126.377 576.86C120.558 578.84 117.083 581.946 117.083 585.167C117.083 590.813 127.577 595.583 140 595.583C152.423 595.583 162.917 590.813 162.917 585.167C162.917 581.946 159.442 578.84 153.623 576.86C153.077 576.675 152.787 576.083 152.971 575.54C153.158 574.996 153.75 574.7 154.294 574.89C161.098 577.202 165 580.95 165 585.167C165 592.175 154.019 597.667 140 597.667Z" fill="white"/>
<path d="M140 606C125.981 606 115 600.508 115 593.5V585.167C115 584.592 115.467 584.125 116.042 584.125C116.617 584.125 117.083 584.592 117.083 585.167V593.5C117.083 599.146 127.577 603.917 140 603.917C152.423 603.917 162.917 599.146 162.917 593.5V585.34C162.917 584.765 163.383 584.298 163.958 584.298C164.533 584.298 165 584.765 165 585.34V593.5C165 600.508 154.019 606 140 606Z" fill="white"/>
<path d="M116.938 589.333C116.756 589.333 116.575 589.287 116.41 589.19C115.915 588.898 115.748 588.26 116.04 587.762C117.99 584.446 122.517 581.758 128.79 580.196C129.352 580.056 129.915 580.396 130.052 580.956C130.19 581.515 129.85 582.079 129.294 582.219C123.65 583.623 119.475 586.029 117.833 588.819C117.642 589.15 117.294 589.333 116.938 589.333Z" fill="white"/>
<path d="M163.063 589.333C162.706 589.333 162.358 589.15 162.165 588.819C160.523 586.029 156.348 583.623 150.704 582.219C150.146 582.079 149.806 581.515 149.946 580.956C150.083 580.398 150.646 580.058 151.208 580.196C157.481 581.758 162.01 584.446 163.958 587.762C164.252 588.258 164.085 588.896 163.588 589.19C163.425 589.287 163.244 589.333 163.063 589.333Z" fill="white"/>
<path d="M140 581C134.831 581 130.625 576.794 130.625 571.625C130.625 566.083 138.871 556.744 139.221 556.35C139.615 555.904 140.385 555.904 140.779 556.35C141.129 556.744 149.375 566.083 149.375 571.625C149.375 576.794 145.169 581 140 581ZM140 558.64C137.419 561.721 132.708 568.079 132.708 571.625C132.708 575.646 135.979 578.917 140 578.917C144.021 578.917 147.292 575.646 147.292 571.625C147.292 568.079 142.581 561.721 140 558.64Z" fill="white"/>
</g>
<g clip-path="url(#clip1_1_62)">
<path d="M1212 2479.67C1197.98 2479.67 1187 2474.17 1187 2467.17C1187 2462.95 1190.9 2459.2 1197.71 2456.89C1198.25 2456.7 1198.84 2456.99 1199.03 2457.54C1199.21 2458.09 1198.92 2458.67 1198.38 2458.86C1192.56 2460.84 1189.08 2463.95 1189.08 2467.17C1189.08 2472.81 1199.58 2477.58 1212 2477.58C1224.42 2477.58 1234.92 2472.81 1234.92 2467.17C1234.92 2463.95 1231.44 2460.84 1225.62 2458.86C1225.08 2458.67 1224.79 2458.08 1224.97 2457.54C1225.16 2457 1225.75 2456.7 1226.29 2456.89C1233.1 2459.2 1237 2462.95 1237 2467.17C1237 2474.17 1226.02 2479.67 1212 2479.67Z" fill="white"/>
<path d="M1212 2488C1197.98 2488 1187 2482.51 1187 2475.5V2467.17C1187 2466.59 1187.47 2466.12 1188.04 2466.12C1188.62 2466.12 1189.08 2466.59 1189.08 2467.17V2475.5C1189.08 2481.15 1199.58 2485.92 1212 2485.92C1224.42 2485.92 1234.92 2481.15 1234.92 2475.5V2467.34C1234.92 2466.76 1235.38 2466.3 1235.96 2466.3C1236.53 2466.3 1237 2466.76 1237 2467.34V2475.5C1237 2482.51 1226.02 2488 1212 2488Z" fill="white"/>
<path d="M1188.94 2471.33C1188.76 2471.33 1188.57 2471.29 1188.41 2471.19C1187.91 2470.9 1187.75 2470.26 1188.04 2469.76C1189.99 2466.45 1194.52 2463.76 1200.79 2462.2C1201.35 2462.06 1201.91 2462.4 1202.05 2462.96C1202.19 2463.51 1201.85 2464.08 1201.29 2464.22C1195.65 2465.62 1191.47 2468.03 1189.83 2470.82C1189.64 2471.15 1189.29 2471.33 1188.94 2471.33Z" fill="white"/>
<path d="M1235.06 2471.33C1234.71 2471.33 1234.36 2471.15 1234.16 2470.82C1232.52 2468.03 1228.35 2465.62 1222.7 2464.22C1222.15 2464.08 1221.81 2463.51 1221.95 2462.96C1222.08 2462.4 1222.65 2462.06 1223.21 2462.2C1229.48 2463.76 1234.01 2466.45 1235.96 2469.76C1236.25 2470.26 1236.09 2470.9 1235.59 2471.19C1235.43 2471.29 1235.24 2471.33 1235.06 2471.33Z" fill="white"/>
<path d="M1212 2463C1206.83 2463 1202.62 2458.79 1202.62 2453.63C1202.62 2448.08 1210.87 2438.74 1211.22 2438.35C1211.61 2437.9 1212.39 2437.9 1212.78 2438.35C1213.13 2438.74 1221.38 2448.08 1221.38 2453.63C1221.38 2458.79 1217.17 2463 1212 2463ZM1212 2440.64C1209.42 2443.72 1204.71 2450.08 1204.71 2453.63C1204.71 2457.65 1207.98 2460.92 1212 2460.92C1216.02 2460.92 1219.29 2457.65 1219.29 2453.63C1219.29 2450.08 1214.58 2443.72 1212 2440.64Z" fill="white"/>
</g>
<g clip-path="url(#clip2_1_62)">
<path d="M1201.8 907.997C1195.18 906.346 1190.56 900.423 1190.56 893.594C1190.56 887.031 1194.77 881.328 1201.04 879.403C1201.37 879.302 1201.59 878.999 1201.59 878.656V865.93H1208.85V878.546C1208.85 878.896 1209.08 879.204 1209.42 879.298C1211.14 879.782 1212.75 880.569 1214.2 881.637C1214.34 881.74 1214.51 881.79 1214.67 881.79C1214.91 881.79 1215.14 881.68 1215.3 881.472C1215.55 881.125 1215.48 880.636 1215.13 880.379C1213.69 879.317 1212.1 878.506 1210.41 877.964V865.902C1211.85 865.703 1212.97 864.462 1212.97 862.965C1212.97 861.33 1211.64 860 1210 860H1200.81C1199.17 860 1197.84 861.33 1197.84 862.965C1197.84 864.33 1198.77 865.481 1200.03 865.825V878.09C1196.97 879.154 1194.23 881.15 1192.28 883.756C1190.13 886.612 1189 890.014 1189 893.594C1189 897.328 1190.22 900.846 1192.54 903.768C1194.78 906.603 1197.93 908.642 1201.42 909.513C1201.49 909.529 1201.55 909.536 1201.61 909.536C1201.96 909.536 1202.28 909.299 1202.37 908.944C1202.47 908.525 1202.22 908.101 1201.8 907.997ZM1199.41 862.965C1199.41 862.192 1200.04 861.562 1200.81 861.562H1210C1210.78 861.562 1211.41 862.192 1211.41 862.965C1211.41 863.739 1210.78 864.368 1210 864.368H1200.81C1200.04 864.368 1199.41 863.739 1199.41 862.965ZM1238.43 905.129L1225.55 886.726V870.298H1225.63C1227.26 870.298 1228.59 868.968 1228.59 867.333C1228.59 865.698 1227.26 864.368 1225.63 864.368H1216.43C1214.8 864.368 1213.47 865.698 1213.47 867.333C1213.47 868.899 1214.69 870.184 1216.23 870.29L1216.23 886.725L1203.35 905.129C1202.68 906.093 1202.6 907.291 1203.14 908.334C1203.68 909.377 1204.71 910 1205.89 910H1235.9C1237.07 910 1238.1 909.377 1238.64 908.334C1239.18 907.291 1239.11 906.093 1238.43 905.129ZM1215.03 867.333C1215.03 866.56 1215.66 865.93 1216.43 865.93H1225.63C1226.4 865.93 1227.03 866.56 1227.03 867.333C1227.03 868.107 1226.4 868.736 1225.63 868.736H1216.43C1215.66 868.736 1215.03 868.106 1215.03 867.333ZM1237.26 907.612C1236.98 908.137 1236.49 908.438 1235.9 908.438H1205.89C1205.3 908.438 1204.8 908.137 1204.53 907.612C1204.25 907.088 1204.29 906.509 1204.63 906.025L1217.65 887.419C1217.74 887.288 1217.79 887.131 1217.79 886.971L1217.79 870.298H1223.99V886.973C1223.99 887.133 1224.04 887.289 1224.13 887.421L1237.15 906.025C1237.49 906.509 1237.53 907.088 1237.26 907.612ZM1199.34 883.08C1199.58 883.439 1199.48 883.924 1199.12 884.164C1195.96 886.272 1194.08 889.797 1194.08 893.594C1194.08 894.025 1193.73 894.375 1193.3 894.375C1192.87 894.375 1192.52 894.025 1192.52 893.594C1192.52 889.274 1194.66 885.262 1198.25 882.864C1198.61 882.625 1199.1 882.721 1199.34 883.08ZM1231.1 900.778C1231.34 901.131 1231.26 901.619 1230.9 901.866C1230.77 901.961 1230.61 902.007 1230.46 902.007C1230.21 902.007 1229.97 901.891 1229.82 901.674L1224.32 893.818C1224.07 893.465 1224.16 892.978 1224.51 892.73C1224.86 892.483 1225.35 892.569 1225.6 892.922L1231.1 900.778Z" fill="white"/>
</g>
<g clip-path="url(#clip3_1_62)">
<path d="M62.8002 2142C56.1836 2140.35 51.5625 2134.42 51.5625 2127.59C51.5625 2121.03 55.7729 2115.33 62.0395 2113.4C62.3674 2113.3 62.5912 2113 62.5912 2112.66V2099.93H69.8463V2112.55C69.8463 2112.9 70.0795 2113.2 70.4169 2113.3C72.1438 2113.78 73.7546 2114.57 75.2043 2115.64C75.3438 2115.74 75.5062 2115.79 75.6672 2115.79C75.9069 2115.79 76.1435 2115.68 76.2967 2115.47C76.5527 2115.12 76.4787 2114.64 76.1313 2114.38C74.6895 2113.32 73.1032 2112.51 71.4087 2111.96V2099.9C72.8521 2099.7 73.9677 2098.46 73.9677 2096.97C73.9678 2095.33 72.6376 2094 71.0025 2094H61.8099C60.1749 2094 58.8447 2095.33 58.8447 2096.97C58.8447 2098.33 59.7716 2099.48 61.0286 2099.83V2112.09C57.9675 2113.15 55.2312 2115.15 53.2758 2117.76C51.1328 2120.61 50 2124.01 50 2127.59C50 2131.33 51.2226 2134.85 53.5354 2137.77C55.7786 2140.6 58.9347 2142.64 62.4221 2143.51C62.4855 2143.53 62.5491 2143.54 62.6117 2143.54C62.9619 2143.54 63.2806 2143.3 63.3691 2142.94C63.4735 2142.53 63.2188 2142.1 62.8002 2142ZM60.4072 2096.97C60.4072 2096.19 61.0364 2095.56 61.8099 2095.56H71.0025C71.776 2095.56 72.4052 2096.19 72.4052 2096.97C72.4052 2097.74 71.776 2098.37 71.0025 2098.37H61.8099C61.0365 2098.37 60.4072 2097.74 60.4072 2096.97ZM99.4321 2139.13L86.5526 2120.73V2104.3H86.6276C88.2626 2104.3 89.5928 2102.97 89.5928 2101.33C89.5928 2099.7 88.2626 2098.37 86.6276 2098.37H77.435C75.8 2098.37 74.4698 2099.7 74.4698 2101.33C74.4698 2102.9 75.6901 2104.18 77.2296 2104.29L77.2306 2120.72L64.3501 2139.13C63.6756 2140.09 63.5974 2141.29 64.1405 2142.33C64.6837 2143.38 65.7103 2144 66.8865 2144H96.8957C98.0719 2144 99.0984 2143.38 99.6417 2142.33C100.185 2141.29 100.107 2140.09 99.4321 2139.13ZM76.0323 2101.33C76.0323 2100.56 76.6615 2099.93 77.435 2099.93H86.6276C87.4011 2099.93 88.0303 2100.56 88.0303 2101.33C88.0303 2102.11 87.4011 2102.74 86.6276 2102.74H77.435C76.6615 2102.74 76.0323 2102.11 76.0323 2101.33ZM98.2558 2141.61C97.9827 2142.14 97.4869 2142.44 96.8957 2142.44H66.8865C66.2952 2142.44 65.7995 2142.14 65.5265 2141.61C65.2534 2141.09 65.2912 2140.51 65.6303 2140.02L78.652 2121.42C78.7438 2121.29 78.7932 2121.13 78.7932 2120.97L78.7922 2104.3H84.9902V2120.97C84.9902 2121.13 85.0396 2121.29 85.1314 2121.42L98.1521 2140.02C98.491 2140.51 98.5289 2141.09 98.2558 2141.61ZM60.3376 2117.08C60.5771 2117.44 60.4804 2117.92 60.1216 2118.16C56.9635 2120.27 55.0781 2123.8 55.0781 2127.59C55.0781 2128.03 54.7283 2128.38 54.2969 2128.38C53.8654 2128.38 53.5156 2128.03 53.5156 2127.59C53.5156 2123.27 55.6608 2119.26 59.2541 2116.86C59.613 2116.62 60.098 2116.72 60.3376 2117.08ZM92.096 2134.78C92.3434 2135.13 92.2574 2135.62 91.9039 2135.87C91.7676 2135.96 91.6113 2136.01 91.4566 2136.01C91.2104 2136.01 90.9679 2135.89 90.8159 2135.67L85.318 2127.82C85.0706 2127.46 85.1565 2126.98 85.5101 2126.73C85.8635 2126.48 86.3507 2126.57 86.598 2126.92L92.096 2134.78Z" fill="white"/>
</g>
<defs>
<clipPath id="clip0_1_62">
<rect width="50" height="50" fill="white" transform="translate(115 556)"/>
</clipPath>
<clipPath id="clip1_1_62">
<rect width="50" height="50" fill="white" transform="translate(1187 2438)"/>
</clipPath>
<clipPath id="clip2_1_62">
<rect width="50" height="50" fill="white" transform="translate(1189 860)"/>
</clipPath>
<clipPath id="clip3_1_62">
<rect width="50" height="50" fill="white" transform="translate(50 2094)"/>
</clipPath>
</defs>
</svg>
